HIERARCHY
ROOT Hips
{
	OFFSET 0.000000 0.974569 0.000000
	CHANNELS 6 Xposition Yposition Zposition Zrotation Yrotation Xrotation 
	JOINT LeftUpLeg
	{
		OFFSET 0.053611 -0.120306 -0.009227
		CHANNELS 3 Zrotation Yrotation Xrotation
		JOINT LeftLeg
		{
			OFFSET 0.058153 -0.371348 0.006991
			CHANNELS 3 Zrotation Yrotation Xrotation
			JOINT LeftFoot
			{
				OFFSET -0.020238 -0.427362 -0.108449
				CHANNELS 3 Zrotation Yrotation Xrotation
				End Site #name: LeftToeBase
				{
					OFFSET 0.052392 -0.047966 0.122358
				}
			}
		}
	}
	JOINT rightUpLeg
	{
		OFFSET -0.063475 -0.125611 -0.020483
		CHANNELS 3 Zrotation Yrotation Xrotation
		JOINT RightLeg
		{
			OFFSET -0.079527 -0.356086 0.052183
			CHANNELS 3 Zrotation Yrotation Xrotation
			JOINT RightFoot
			{
				OFFSET -0.013845 -0.431396 -0.020664
				CHANNELS 3 Zrotation Yrotation Xrotation
				End Site #name: RightToeBase
				{
					OFFSET -0.015245 -0.047948 0.141654
				}
			}
		}
	}
	JOINT Spine
	{
		OFFSET 0.001639 0.080604 -0.041970
		CHANNELS 3 Zrotation Yrotation Xrotation
		JOINT Spine1
		{
			OFFSET -0.009864 0.155137 0.037792
			CHANNELS 3 Zrotation Yrotation Xrotation
			JOINT Spine2
			{
				OFFSET 0.001139 0.066846 0.006758
				CHANNELS 3 Zrotation Yrotation Xrotation
				JOINT Neck
				{
					OFFSET 0.018686 0.224605 -0.011019
					CHANNELS 3 Zrotation Yrotation Xrotation
					End Site #name: Head
					{
						OFFSET -0.019082 0.060121 0.044155
					}
				}
				JOINT LeftShoulder
				{
					OFFSET 0.084077 0.126552 -0.008465
					CHANNELS 3 Zrotation Yrotation Xrotation
					JOINT LeftArm
					{
						OFFSET 0.120408 0.006700 0.048203
						CHANNELS 3 Zrotation Yrotation Xrotation
						JOINT LeftForeArm
						{
							OFFSET 0.020262 -0.229540 0.157116
							CHANNELS 3 Zrotation Yrotation Xrotation
							End Site #name: LeftHand
							{
								OFFSET -0.047482 -0.044792 0.258529
							}
						}
					}
				}
				JOINT RightShoulder
				{
					OFFSET -0.073678 0.144140 -0.011505
					CHANNELS 3 Zrotation Yrotation Xrotation
					JOINT RightArm
					{
						OFFSET -0.118473 0.019262 0.025307
						CHANNELS 3 Zrotation Yrotation Xrotation
						JOINT RightForeArm
						{
							OFFSET -0.019182 -0.209262 0.190440
							CHANNELS 3 Zrotation Yrotation Xrotation
							End Site #name: RightHand
							{
								OFFSET 0.078721 0.008206 0.259714
							}
						}
					}
				}
			}
		}
	}
}
MOTION
Frames: 9
Frame Time: 0.041667
0.000000 0.974569 0.000000 -0.000000 0.000000 -0.000000 0.000000 0.000000 0.000000 0.000000 0.000000 0.000000 0.000000 0.000000 0.000000 0.000000 0.000000 0.000000 0.000000 0.000000 0.000000 0.000000 0.000000 0.000000 0.000000 -0.000000 0.000000 -0.000000 0.000000 -0.000000 0.000000 -0.000000 0.000000 0.000000 0.000000 0.000000 0.000000 0.000000 0.000000 0.000000 0.000000 0.000000 0.000000 0.000000 0.000000 0.000000 0.000000 0.000000 0.000000 0.000000 0.000000 0.000000 0.000000 -0.000000 
-0.002107 0.974920 0.000171 -0.365229 0.370789 0.493883 0.969707 0.018049 -0.001241 -1.310950 0.347539 -0.428015 1.975028 5.866017 0.998637 1.301992 0.361609 -0.722395 0.703270 0.014937 -1.271927 0.475955 0.514914 2.658954 -1.264285 0.280140 -0.372995 4.045643 -0.530925 2.297868 -1.420294 0.148607 -3.386455 0.469848 0.946115 4.045228 4.932031 -4.389343 -1.886779 2.571873 1.159621 -10.138854 2.343139 8.960244 3.093065 0.042461 1.371665 0.232024 2.023448 1.591667 2.069580 1.109794 1.527612 -3.975259 
-0.003054 0.975105 0.000677 -0.513653 0.198571 0.900362 1.570617 0.008917 -0.144413 -1.541958 0.410567 -0.591528 2.111984 6.287308 1.105472 1.350140 0.284541 -0.364888 1.119253 0.057226 -2.648380 0.534032 0.516106 3.161882 -1.447235 0.301619 -0.666127 5.376642 -0.703007 2.451916 -1.713271 -0.309530 -3.704916 0.391921 1.067235 4.225560 8.152205 -8.445439 -3.289995 4.760148 2.775882 -15.619906 3.424437 12.233944 4.609401 -0.009310 -1.255065 -0.206432 2.015800 1.379078 3.806580 1.522817 3.270274 -5.861051 
-0.003528 0.974931 0.001216 -0.525115 0.150403 1.111822 1.848758 0.028087 -0.047351 -1.658994 0.443778 -0.723110 2.199098 6.561059 1.181956 1.232009 0.215458 -0.146727 1.413693 0.091883 -3.593221 0.649032 0.685057 3.613682 -1.661161 0.345650 -0.753190 6.193761 -0.807686 2.506408 -1.894338 -0.605067 -3.832718 0.269689 1.301095 4.636459 10.129172 -10.442656 -4.233214 6.480598 4.304351 -18.810656 4.191420 14.173033 5.788056 0.203019 -3.578148 -0.548739 1.658762 0.849852 5.849586 1.734791 5.142747 -7.234575 
-0.003770 0.974856 0.001873 -0.480204 0.126717 1.220098 2.008193 0.066176 0.205275 -1.671778 0.450045 -0.821278 2.215604 6.734615 1.335254 1.068789 0.130074 0.115229 1.618835 0.127582 -4.439562 0.759933 0.832403 4.085899 -1.882528 0.395870 -0.781349 6.826156 -0.887238 2.521896 -2.051678 -0.872907 -3.852614 0.102231 1.599267 5.122373 11.810002 -11.806872 -5.068448 8.038364 5.833133 -21.292830 4.885982 15.849650 6.805524 0.562494 -5.977174 -0.892553 0.987880 0.066251 8.247268 1.914350 7.161142 -8.714447 
-0.003882 0.974787 0.002637 -0.346524 0.167484 1.203396 2.049531 0.109415 0.512858 -1.625496 0.435332 -0.717491 2.140352 6.640733 1.429657 0.872905 0.038566 0.387107 1.700177 0.155973 -5.060915 0.838730 0.931130 4.432616 -2.155817 0.458187 -0.810663 7.270274 -0.944338 2.546093 -2.147644 -1.096667 -3.748220 -0.177251 2.014362 5.670636 13.209118 -12.526177 -5.771972 9.466994 7.324731 -22.991810 5.334030 17.238128 7.205899 1.079029 -8.469869 -1.250656 -0.033884 -0.967225 11.154587 2.074541 9.250574 -10.371248 
-0.003994 0.974566 0.003319 -0.033575 0.390622 1.000862 1.899096 0.139785 0.745622 -1.567446 0.403679 -0.187844 1.991229 6.156481 1.279057 0.642910 -0.026457 0.527011 1.585702 0.157518 -5.085469 0.848357 0.959741 4.422002 -2.546927 0.545623 -0.870253 7.338099 -0.960983 2.645807 -2.011213 -1.143636 -3.521458 -0.801400 2.729227 6.238775 13.843600 -11.876380 -6.053964 10.512610 8.420112 -23.466989 5.025025 17.882054 5.875451 1.724213 -10.521932 -1.539960 -1.487485 -2.236171 14.455828 2.200885 11.039509 -11.964251 
-0.004207 0.974006 0.003627 0.568753 0.947996 0.601887 1.487011 0.121621 0.653682 -1.624314 0.381394 0.945261 1.847022 5.435552 0.862148 0.326728 -0.026750 0.329923 1.171094 0.115879 -4.066323 0.783672 0.972447 3.842756 -3.182239 0.686498 -0.970823 6.793168 -0.909194 2.858081 -1.397716 -0.810821 -3.149092 -2.173568 3.959373 6.463054 13.065461 -8.676668 -5.556363 10.793263 8.631700 -22.363824 3.202935 16.634949 1.156949 2.416867 -11.103065 -1.567307 -3.417658 -3.676209 17.528704 2.319185 11.816018 -13.033192 
-0.004652 0.972796 0.003087 1.417212 1.839036 0.186087 0.991843 0.016264 -0.016141 -2.042313 0.444131 2.584966 1.827015 4.930457 0.370904 -0.117819 0.092964 -0.495672 0.531133 0.041873 -1.833262 0.677070 1.048448 2.717796 -4.129963 0.909209 -0.978297 5.675746 -0.775325 2.976834 -0.335764 -0.021505 -2.589525 -4.440587 5.628601 5.860200 10.915560 -2.399744 -4.416104 10.228603 7.932182 -20.080656 0.175751 12.054400 -6.614442 3.015721 -9.289157 -1.138934 -5.440848 -5.014253 19.379761 2.490117 10.904849 -13.208000 
